<svg width="93" height="88" fill="none" xmlns="http://www.w3.org/2000/svg"><g clip-path="url(#clip0)"><path d="M84.321 25.438H62.595l13.203-22.86a1.716 1.716 0 000-1.719A1.722 1.722 0 0074.31 0H60.93c-.613 0-1.18.328-1.487.86L48.915 19.087 38.386.86A1.72 1.72 0 0036.898 0H23.52a1.72 1.72 0 00-1.489 2.578l17.174 29.735H36.54a5.85 5.85 0 00-5.844 5.843A5.85 5.85 0 0036.54 44h24.75a5.85 5.85 0 005.844-5.844 5.85 5.85 0 00-5.844-5.843h-4.737l-1.985-3.438h29.753a5.162 5.162 0 015.157 5.156v45.375a5.162 5.162 0 01-5.157 5.156H13.51a5.163 5.163 0 01-5.156-5.156V34.031a5.163 5.163 0 015.156-5.156h10.957a1.72 1.72 0 000-3.438H13.509c-4.739 0-8.594 3.856-8.594 8.594v45.375C4.915 84.145 8.77 88 13.51 88h70.81c4.739 0 8.594-3.855 8.594-8.594V34.031c0-4.738-3.855-8.593-8.594-8.593zM63.696 38.156a2.409 2.409 0 01-2.406 2.407H36.54a2.409 2.409 0 01-2.406-2.407 2.409 2.409 0 012.406-2.406h24.75a2.409 2.409 0 012.406 2.406zm-20.521-5.843L26.498 3.436h9.408l16.677 28.875h-9.408zm7.725-9.789L61.924 3.437h9.409l-12.707 22h-6.043L50.9 22.524z" fill="#fff"/></g><path d="M.855 56.195c.12 0 .12-.181 0-.181-.122 0-.122.181 0 .181zm27.583 1.337c0-.958-.277-1.717-.83-2.278-.544-.56-1.321-.837-2.323-.837h-1.892v6.774h1.451c1.028 0 1.883-.328 2.566-.984.682-.656 1.028-1.544 1.028-2.675zM51.572 69.32h-6.574v-.803c.182-.017.44-.043.778-.07.337-.025.57-.068.7-.129a.93.93 0 00.492-.405c.104-.181.155-.414.155-.708V61.58h-7.429v5.506c0 .258.043.483.13.655.086.182.25.337.51.466.129.07.354.13.673.199.329.069.579.103.77.112v.803h-6.575v-.803c.181-.017.44-.043.777-.07.337-.025.57-.068.7-.129a.93.93 0 00.493-.405c.103-.181.155-.414.155-.708v-11.4c0-.233-.052-.457-.147-.647s-.259-.345-.5-.466a4.36 4.36 0 00-.727-.259 4.29 4.29 0 00-.751-.13v-.802h6.574v.803a6.351 6.351 0 00-1.443.259c-.25.095-.423.241-.51.449a1.73 1.73 0 00-.129.673v4.91h7.43v-4.79a1.49 1.49 0 00-.147-.655c-.095-.199-.26-.346-.501-.458a4.483 4.483 0 00-.735-.259 4.008 4.008 0 00-.734-.13v-.802h6.574v.803a6.354 6.354 0 00-1.443.259c-.25.095-.423.241-.51.449a1.78 1.78 0 00-.129.681v11.39c0 .26.043.484.13.656.086.182.25.337.51.466.129.07.354.13.673.199.329.069.579.103.77.112v.803h-.01zm10.713-11.788c0-.958-.277-1.717-.83-2.278-.553-.56-1.33-.837-2.324-.837H57.24v6.774h1.46c1.029 0 1.884-.328 2.566-.984.674-.656 1.02-1.544 1.02-2.675zm5.874 11.788H63.89a84.54 84.54 0 00-5.036-7.162h-1.616v5.013c0 .259.044.483.121.681.087.199.26.346.527.45.13.051.372.103.7.146.328.043.622.069.847.078v.802h-6.695v-.802c.181-.018.44-.043.777-.078.337-.043.579-.086.709-.147a.938.938 0 00.483-.423c.104-.19.156-.422.156-.707V55.737a1.91 1.91 0 00-.112-.69c-.078-.198-.251-.354-.527-.457-.19-.06-.424-.13-.726-.182a4.913 4.913 0 00-.76-.103v-.803h7.308c.674 0 1.296.07 1.883.207a4.97 4.97 0 011.599.665 3.25 3.25 0 011.105 1.165c.277.474.415 1.061.415 1.734 0 .613-.095 1.148-.277 1.614-.19.466-.466.871-.829 1.217a4.985 4.985 0 01-1.21.828 9.288 9.288 0 01-1.546.595 208.058 208.058 0 011.944 2.606c.519.708 1.15 1.562 1.9 2.572.329.449.623.776.89.984.26.215.527.388.787.517.19.095.44.173.725.225.285.052.527.077.726.086v.803zm10.487-7.266c.329.37.58.776.743 1.225.156.44.242.958.242 1.545 0 1.398-.518 2.545-1.555 3.451-1.036.915-2.315 1.364-3.844 1.364a7.166 7.166 0 01-2.117-.328c-.708-.225-1.321-.483-1.83-.803l-.485.812h-.898l-.156-5.41h.899c.19.672.406 1.276.656 1.811.25.544.58 1.044.985 1.51.389.44.838.794 1.356 1.053.519.259 1.115.388 1.806.388a4.22 4.22 0 001.348-.198c.38-.13.69-.328.933-.57a2.29 2.29 0 00.527-.863c.12-.328.172-.716.172-1.147 0-.63-.181-1.217-.535-1.77-.354-.543-.89-.957-1.59-1.242-.483-.198-1.036-.405-1.658-.647a21.82 21.82 0 01-1.616-.664c-.89-.406-1.58-.932-2.073-1.58-.493-.647-.743-1.501-.743-2.545 0-.604.12-1.156.371-1.683a4.496 4.496 0 011.046-1.398c.432-.38.941-.69 1.529-.906a5.297 5.297 0 011.84-.328c.725 0 1.382.112 1.952.337a8.904 8.904 0 011.572.785l.458-.76h.89l.086 5.247h-.898a19.433 19.433 0 00-.553-1.734 6.22 6.22 0 00-.795-1.502 3.65 3.65 0 00-1.174-1.035c-.458-.259-1.029-.389-1.694-.389-.708 0-1.304.225-1.805.682a2.152 2.152 0 00-.743 1.674c0 .682.164 1.243.484 1.7.32.449.777.82 1.39 1.105.545.267 1.08.483 1.599.673.527.19 1.028.397 1.52.604.45.198.873.414 1.287.656a5.71 5.71 0 011.071.88zM34.303 69.32h-4.258a84.545 84.545 0 00-5.037-7.162h-1.624v5.013c0 .259.043.483.121.681.086.199.26.346.527.45.13.051.371.103.708.146.329.043.614.069.847.078v.802h-6.704v-.802c.182-.018.44-.043.778-.078.337-.043.578-.086.708-.147a.938.938 0 00.484-.423c.104-.19.147-.422.147-.707V55.737c0-.259-.035-.492-.113-.69-.077-.198-.25-.354-.527-.457-.19-.06-.423-.13-.725-.182a4.563 4.563 0 00-.752-.103v-.803h7.309c.674 0 1.296.07 1.883.207a4.97 4.97 0 011.598.665c.467.293.83.682 1.106 1.165.276.474.415 1.061.415 1.734 0 .613-.095 1.148-.277 1.614a3.36 3.36 0 01-.83 1.217 4.792 4.792 0 01-1.209.828 9.29 9.29 0 01-1.546.595 206.937 206.937 0 011.944 2.606c.518.708 1.149 1.562 1.9 2.572.329.449.622.776.89.984.26.215.527.388.786.517.199.095.44.173.726.225.285.052.527.077.725.086v.803z" fill="#fff"/><defs><clipPath id="clip0"><path fill="#fff" transform="translate(4.915)" d="M0 0h88v88H0z"/></clipPath></defs></svg>